<svg width="62" height="24" viewBox="0 0 62 24" fill="none" xmlns="http://www.w3.org/2000/svg">
<path d="M7 11L9 9L7 7" stroke="black" stroke-width="2" stroke-linecap="round" stroke-linejoin="round"/>
<path d="M11 13H15" stroke="black" stroke-width="2" stroke-linecap="round" stroke-linejoin="round"/>
<path d="M19 3H5C3.89543 3 3 3.89543 3 5V19C3 20.1046 3.89543 21 5 21H19C20.1046 21 21 20.1046 21 19V5C21 3.89543 20.1046 3 19 3Z" stroke="black" stroke-width="2" stroke-linecap="round" stroke-linejoin="round"/>
<path d="M7 11L9 9L7 7" stroke="black" stroke-width="2" stroke-linecap="round" stroke-linejoin="round"/>
<path d="M11 13H15" stroke="black" stroke-width="2" stroke-linecap="round" stroke-linejoin="round"/>
<path d="M19 3H5C3.89543 3 3 3.89543 3 5V19C3 20.1046 3.89543 21 5 21H19C20.1046 21 21 20.1046 21 19V5C21 3.89543 20.1046 3 19 3Z" stroke="black" stroke-width="2" stroke-linecap="round" stroke-linejoin="round"/>
<path d="M31.8721 17.5488C32.5303 17.5488 33.0639 17.0152 33.0639 16.357V5.19179C33.0639 4.53358 32.5303 4 31.8721 4V4C31.2139 4 30.6803 4.53358 30.6803 5.19179V16.357C30.6803 17.0152 31.2139 17.5488 31.8721 17.5488V17.5488ZM26.7409 17.5488C27.1256 17.5488 27.4894 17.3739 27.7298 17.0735L31.3389 12.5621L27.8021 8.37602C27.5748 8.10694 27.2404 7.95172 26.8882 7.95172V7.95172C25.8502 7.95172 25.3046 9.18296 26.0018 9.95192L28.7609 12.9949L28.6292 12.1104L25.7766 15.4616C25.0767 16.2839 25.661 17.5488 26.7409 17.5488V17.5488Z" fill="black"/>
<path d="M58.7759 17.3981C58.3797 17.3981 58.0304 17.1284 57.9813 16.7352V16.7352C57.9612 16.4942 57.9511 16.2029 57.9511 15.8615H57.8909V12.2157C57.8909 11.8139 57.7754 11.5126 57.5444 11.3118C57.3234 11.1009 56.9819 10.9954 56.5199 10.9954C56.068 10.9954 55.7064 11.0808 55.4353 11.2515C55.4036 11.271 55.3733 11.2916 55.3446 11.3134C54.9863 11.5842 54.6287 11.9596 54.1796 11.9596V11.9596C53.6201 11.9596 53.169 11.4503 53.4586 10.9717C53.6283 10.6911 53.8604 10.4429 54.1547 10.2271C54.7573 9.78517 55.5658 9.56422 56.5802 9.56422C57.6348 9.56422 58.4332 9.80526 58.9756 10.2873C59.5179 10.7594 59.7891 11.4574 59.7891 12.3814V15.8615C59.7891 16.1025 59.8042 16.3486 59.8343 16.5997V16.5997C59.8997 17.0088 59.5986 17.3981 59.1843 17.3981H58.7759ZM55.4353 17.5488C54.6619 17.5488 54.0442 17.3579 53.5822 16.9763C53.1303 16.5846 52.9043 16.0623 52.9043 15.4095C52.9043 14.7065 53.1604 14.149 53.6726 13.7373C54.1848 13.3255 54.908 13.0493 55.842 12.9087L58.2374 12.5471V13.7523L56.1584 14.0687C55.7064 14.139 55.3649 14.2645 55.1339 14.4453C54.913 14.6261 54.8025 14.8772 54.8025 15.1986C54.8025 15.4899 54.908 15.7158 55.1189 15.8765C55.3298 16.0272 55.6211 16.1025 55.9927 16.1025C56.535 16.1025 56.987 15.9669 57.3485 15.6957C57.7101 15.4246 57.8909 15.0931 57.8909 14.7014L58.1018 15.8615C57.9009 16.4138 57.5695 16.8357 57.1075 17.1269C56.6555 17.4081 56.0981 17.5488 55.4353 17.5488Z" fill="black"/>
<path d="M50.3644 17.3981C49.8527 17.3981 49.4379 16.9833 49.4379 16.4716V15.6656L49.5886 15.6957C49.458 16.2582 49.1416 16.7101 48.6394 17.0516C48.1373 17.383 47.5397 17.5488 46.8467 17.5488C46.1436 17.5488 45.531 17.3881 45.0087 17.0667C44.4965 16.7352 44.0998 16.2732 43.8186 15.6807C43.5374 15.0881 43.3968 14.3901 43.3968 13.5866C43.3968 12.7731 43.5424 12.065 43.8337 11.4624C44.1249 10.8598 44.5317 10.3928 45.0539 10.0614C45.5862 9.72993 46.2039 9.56422 46.907 9.56422C47.6301 9.56422 48.2277 9.73998 48.6997 10.0915C49.1717 10.433 49.463 10.91 49.5735 11.5227L49.3776 11.5378V7.50782C49.3776 6.97949 49.8059 6.55118 50.3343 6.55118V6.55118C50.8626 6.55118 51.2909 6.97949 51.2909 7.50782V16.4716C51.2909 16.9833 50.8761 17.3981 50.3644 17.3981V17.3981ZM47.4041 15.997C48.0168 15.997 48.5039 15.7861 48.8654 15.3643C49.237 14.9324 49.4228 14.3298 49.4228 13.5565C49.4228 12.7831 49.237 12.1856 48.8654 11.7637C48.4938 11.3419 48.0017 11.131 47.389 11.131C46.7864 11.131 46.2993 11.3469 45.9277 11.7788C45.5561 12.2006 45.3703 12.7982 45.3703 13.5716C45.3703 14.3449 45.5561 14.9425 45.9277 15.3643C46.2993 15.7861 46.7915 15.997 47.4041 15.997Z" fill="black"/>
<path d="M38.3572 17.5488C37.5437 17.5488 36.8256 17.378 36.2029 17.0365C35.5903 16.6951 35.1132 16.223 34.7717 15.6204C34.4303 15.0078 34.2595 14.3097 34.2595 13.5264C34.2595 12.743 34.4303 12.055 34.7717 11.4624C35.1132 10.8699 35.5903 10.4079 36.2029 10.0764C36.8256 9.73495 37.5437 9.56422 38.3572 9.56422C39.1808 9.56422 39.8989 9.73495 40.5116 10.0764C41.1242 10.4079 41.6013 10.8699 41.9428 11.4624C42.2842 12.055 42.455 12.743 42.455 13.5264C42.455 14.3097 42.2792 15.0078 41.9277 15.6204C41.5862 16.223 41.1091 16.6951 40.4965 17.0365C39.8838 17.378 39.1708 17.5488 38.3572 17.5488ZM38.3572 16.0272C38.759 16.0272 39.1205 15.9267 39.4419 15.7259C39.7633 15.515 40.0144 15.2237 40.1952 14.8521C40.376 14.4704 40.4664 14.0235 40.4664 13.5113C40.4664 12.758 40.2655 12.1655 39.8638 11.7336C39.4721 11.3017 38.9699 11.0858 38.3572 11.0858C37.7446 11.0858 37.2374 11.3017 36.8357 11.7336C36.4339 12.1655 36.2331 12.758 36.2331 13.5113C36.2331 14.0235 36.3234 14.4704 36.5042 14.8521C36.695 15.2237 36.9461 15.515 37.2575 15.7259C37.5789 15.9267 37.9455 16.0272 38.3572 16.0272Z" fill="black"/>
</svg>
